<svg xmlns="http://www.w3.org/2000/svg" width="36" height="36" viewBox="0 0 24 24" fill="none" stroke="currentColor" stroke-width="2" stroke-linecap="round" stroke-linejoin="round">
  <path d="M19 11h2a1 1 0 0 1 1 1v8a1 1 0 0 1-1 1h-2a1 1 0 0 1-1-1v-8a1 1 0 0 1 1-1z"></path>
  <path d="M4 12a1 1 0 0 1 .993.883L5 13v6a2 2 0 0 0 1.85 1.994L7 21h3a1 1 0 0 1 .993.883L11 22a1 1 0 0 1-.883.993L10 23H7a4 4 0 0 1-3.995-3.8L3 19v-6a1 1 0 0 1 1-1z"></path>
  <circle cx="12" cy="5" r="3"></circle>
  <path d="M12 8v6"></path>
  <path d="M8 14h8"></path>
</svg>
